<svg xmlns="http://www.w3.org/2000/svg" xmlns:xlink="http://www.w3.org/1999/xlink" width="279" height="136" viewBox="0 0 279 136">
  <defs>
    <clipPath id="clip-path">
      <rect id="Retângulo_5607" data-name="Retângulo 5607" width="279" height="136" transform="translate(78 929.195)" fill="#0f3a7b"/>
    </clipPath>
  </defs>
  <g id="Grupo_de_máscara_623" data-name="Grupo de máscara 623" transform="translate(-78 -929.195)" opacity="0.166" clip-path="url(#clip-path)">
    <path id="Subtração_34" data-name="Subtração 34" d="M31.094,186.662h0c-8.88,0-16.079-2.207-21.4-6.558-5.906-4.833-9.147-12-9.634-21.293C-.6,146.1,3.957,130.131,13.247,112.637,22.773,94.7,36.779,76.16,53.751,59.03c17.585-17.748,37.063-32.708,56.329-43.265C128.9,5.452,146.253,0,160.252,0c8.877,0,16.074,2.206,21.392,6.558,5.907,4.833,9.148,12,9.635,21.294.666,12.714-3.893,28.681-13.183,46.175-9.527,17.94-23.533,36.476-40.505,53.606-17.584,17.748-37.061,32.709-56.325,43.265C62.442,181.211,45.093,186.662,31.094,186.662ZM163.988,8.712v0c-12.364,0-28.015,5.12-45.261,14.8-17.633,9.9-35.6,23.865-51.965,40.381C50.935,79.875,37.825,97.033,28.848,113.52c-8.763,16.094-13.083,30.558-12.492,41.828.4,7.636,3.041,13.5,7.849,17.435,4.325,3.538,10.207,5.333,17.484,5.336,12.363,0,28.013-5.119,45.258-14.8,17.632-9.9,35.6-23.865,51.965-40.382,15.827-15.974,28.937-33.132,37.914-49.619,8.763-16.094,13.083-30.558,12.492-41.828-.4-7.637-3.041-13.5-7.849-17.438-4.326-3.539-10.206-5.333-17.477-5.333Z" transform="translate(159.928 1094.733) rotate(-90)" fill="#dbe3f2"/>
  </g>
</svg>
