<svg xmlns="http://www.w3.org/2000/svg" xmlns:xlink="http://www.w3.org/1999/xlink" width="92" height="125" viewBox="0 0 92 125">
  <defs>
    <clipPath id="clip-path">
      <rect id="Retângulo_5544" data-name="Retângulo 5544" width="92" height="125" transform="translate(810.78 80.419)" fill="#ced6e4" stroke="#707070" stroke-width="1"/>
    </clipPath>
  </defs>
  <g id="Grupo_de_máscara_599" data-name="Grupo de máscara 599" transform="translate(-810.78 -80.419)" opacity="0.2" clip-path="url(#clip-path)">
    <g id="Grupo_19940" data-name="Grupo 19940" transform="translate(816.406 62.597)">
      <path id="Subtração_5" data-name="Subtração 5" d="M18.473,107.935h0c-5.276,0-9.552-1.276-12.711-3.792C2.253,101.349.327,97.206.038,91.831c-.4-7.351,2.313-16.584,7.832-26.7,5.66-10.374,13.981-21.092,24.063-31A148.725,148.725,0,0,1,65.4,9.116C76.581,3.152,86.888,0,95.2,0c5.274,0,9.549,1.276,12.709,3.792,3.509,2.795,5.435,6.937,5.724,12.313.4,7.351-2.313,16.584-7.832,26.7-5.66,10.374-13.981,21.092-24.064,31A148.715,148.715,0,0,1,48.279,98.819C37.1,104.783,26.79,107.935,18.473,107.935ZM97.424,5.037v0C90.079,5.04,80.781,8,70.535,13.6A142.97,142.97,0,0,0,39.663,36.95,131.428,131.428,0,0,0,17.138,65.642c-5.206,9.306-7.772,17.67-7.421,24.186.238,4.415,1.807,7.807,4.663,10.082,2.569,2.046,6.064,3.084,10.387,3.085,7.345,0,16.642-2.96,26.888-8.56A142.985,142.985,0,0,0,82.527,71.085a131.426,131.426,0,0,0,22.524-28.691c5.206-9.306,7.772-17.67,7.422-24.187-.238-4.416-1.807-7.809-4.663-10.084-2.57-2.046-6.063-3.084-10.383-3.084Z" transform="translate(30.886 131.691) rotate(-90)" fill="#ced6e4"/>
      <path id="Subtração_6" data-name="Subtração 6" d="M89.8,115.372h0c-7.78,0-17.461-3.392-28-9.809a144.46,144.46,0,0,1-31.569-26.89,156.3,156.3,0,0,1-16.9-22.558A106.4,106.4,0,0,1,3.005,34.544C.716,27.683-.273,21.565.064,16.361.414,10.972,2.178,6.8,5.307,3.97,8.216,1.336,12.158,0,17.022,0c7.781,0,17.463,3.392,28,9.809A144.456,144.456,0,0,1,76.591,36.7a156.326,156.326,0,0,1,16.9,22.558,106.4,106.4,0,0,1,10.322,21.572c2.289,6.861,3.278,12.978,2.94,18.183-.35,5.388-2.114,9.557-5.243,12.39C98.6,114.035,94.661,115.371,89.8,115.372ZM22.994,5.28v0c-3.992,0-7.217,1.088-9.586,3.233-2.695,2.44-4.146,6.105-4.312,10.9-.161,4.626.877,10.1,3.084,16.273,4.54,12.693,13.512,26.911,25.264,40.034A139.071,139.071,0,0,0,66.559,100.8a74.392,74.392,0,0,0,13.6,6.825,34.554,34.554,0,0,0,11.657,2.381c3.991,0,7.217-1.088,9.587-3.232,2.695-2.44,4.146-6.105,4.312-10.9.161-4.627-.877-10.1-3.084-16.274C98.09,66.912,89.118,52.695,77.366,39.572A139.08,139.08,0,0,0,48.251,14.487a74.373,74.373,0,0,0-13.6-6.825,34.546,34.546,0,0,0-11.657-2.38Z" transform="translate(0 92.508) rotate(-60)" fill="#ced6e4"/>
      <path id="Subtração_7" data-name="Subtração 7" d="M88.487,115.339c-7.668,0-17.208-3.39-27.59-9.806C50.274,98.968,39.516,89.672,29.787,78.65A156.1,156.1,0,0,1,13.132,56.1,107.058,107.058,0,0,1,2.961,34.534C.706,27.675-.269,21.559.064,16.356.408,10.969,2.146,6.8,5.23,3.969,8.1,1.335,11.981,0,16.774,0c7.668,0,17.208,3.391,27.59,9.806,10.623,6.564,21.381,15.86,31.109,26.881A156.124,156.124,0,0,1,92.128,59.239,107.063,107.063,0,0,1,102.3,80.805c2.255,6.859,3.23,12.975,2.9,18.178-.344,5.387-2.082,9.555-5.166,12.387C97.164,114,93.28,115.338,88.487,115.339ZM22.4,5.467c-3.9,0-7.047,1.078-9.361,3.2-2.632,2.418-4.05,6.051-4.213,10.8-.157,4.585.856,10.011,3.013,16.128,4.435,12.579,13.2,26.669,24.679,39.675a136.418,136.418,0,0,0,28.443,24.86A72.251,72.251,0,0,0,78.244,106.9a33.331,33.331,0,0,0,11.388,2.359c3.9,0,7.047-1.08,9.361-3.2,2.632-2.418,4.05-6.051,4.213-10.8.157-4.585-.856-10.012-3.013-16.128-4.435-12.579-13.2-26.669-24.679-39.675A136.434,136.434,0,0,0,47.07,14.589,72.249,72.249,0,0,0,33.785,7.825,33.324,33.324,0,0,0,22.4,5.467Z" transform="translate(35.936 145.781) rotate(-105)" fill="#ced6e4"/>
      <circle id="Elipse_14395" data-name="Elipse 14395" cx="6.627" cy="6.627" r="6.627" transform="translate(31.991 49.218)" fill="#ced6e4"/>
      <circle id="Elipse_14396" data-name="Elipse 14396" cx="4.694" cy="4.694" r="4.694" transform="translate(60.708 42.039)" fill="#ced6e4"/>
      <circle id="Elipse_14397" data-name="Elipse 14397" cx="6.351" cy="6.351" r="6.351" transform="translate(109.307 58.607)" fill="#ced6e4"/>
      <circle id="Elipse_14398" data-name="Elipse 14398" cx="14.635" cy="14.635" r="14.635" transform="translate(88.874 77.936)" fill="#ced6e4"/>
    </g>
  </g>
</svg>
