<svg xmlns="http://www.w3.org/2000/svg" width="183.828" height="41.825" viewBox="0 0 183.828 41.825">
  <g id="Grupo_19957" data-name="Grupo 19957" transform="translate(-1718 -2643)">
    <g id="Grupo_19956" data-name="Grupo 19956" transform="translate(-6 -1.326)">
      <path id="Caminho_78335" data-name="Caminho 78335" d="M2.4-6.545H19.485c5.522,0,8.462-3.5,8.462-7.509V-26.886c0-3.973-2.94-7.469-8.462-7.469H2.4Zm17.322-9.019c0,1.629-.795,2.424-2.5,2.424H10.665v-14.62H17.22c1.708,0,2.5.795,2.5,2.424ZM39.786-34.356H31.562V-6.545h8.224Zm15.693,17.2,5.443.4-.04,3.456-6.873.04a2.056,2.056,0,0,1-2.344-2.265v-9.853a2.041,2.041,0,0,1,2.344-2.265H66.842l.04-6.6s-8.5-.358-15.137-.358c-5.522,0-8.3,3.576-8.3,7.549v13.19c0,3.973,2.781,7.549,8.3,7.549,6.436,0,15.137-.6,15.137-.6a1.355,1.355,0,0,0,1.271-1.391l.4-14.779H55.48Zm27.93,0,5.443.4-.04,3.456-6.873.04A2.056,2.056,0,0,1,79.6-15.524v-9.853a2.041,2.041,0,0,1,2.344-2.265H94.772l.04-6.6s-8.5-.358-15.137-.358c-5.522,0-8.3,3.576-8.3,7.549v13.19c0,3.973,2.781,7.549,8.3,7.549,6.436,0,15.137-.6,15.137-.6a1.355,1.355,0,0,0,1.271-1.391l.4-14.779H83.409Zm24.513-17.2H99.7V-6.545h8.224Zm28.128,0H110.624V-27.6h8.582V-6.545h8.264V-27.6h8.582ZM154.406-6.545h8.86s-7.708-24.593-8.343-26.579c-.4-1.192-.516-1.232-2.145-1.232H143.52c-1.629,0-1.748.04-2.106,1.232-.636,1.986-8.383,26.579-8.383,26.579h8.9l1.589-5.8h9.3Zm-6.714-21.573h.953l2.463,9.019h-5.88ZM165.133-6.545h21.1v-6.794H173.4V-34.356h-8.264Z" transform="translate(1721.599 2678.92)" fill="#fff"/>
      <path id="Caminho_78336" data-name="Caminho 78336" d="M9.416-2.213l2.478-9.263H10.661L8.78-3.77H8.754L6.7-11.475H5.368L3.293-3.77H3.267L1.45-11.475H.192L2.566-2.213H3.85L5.991-10h.026L8.131-2.213ZM26.747-6.844a5.34,5.34,0,0,1,.182-1.382A3.752,3.752,0,0,1,27.5-9.452a2.918,2.918,0,0,1,1-.876,3,3,0,0,1,1.453-.331,3,3,0,0,1,1.453.331,2.918,2.918,0,0,1,1,.876,3.752,3.752,0,0,1,.571,1.226,5.34,5.34,0,0,1,.182,1.382,5.34,5.34,0,0,1-.182,1.382A3.752,3.752,0,0,1,32.4-4.237a2.918,2.918,0,0,1-1,.876,3,3,0,0,1-1.453.331A3,3,0,0,1,28.5-3.361a2.918,2.918,0,0,1-1-.876,3.752,3.752,0,0,1-.571-1.226A5.34,5.34,0,0,1,26.747-6.844Zm-1.232,0a5.969,5.969,0,0,0,.279,1.823,4.593,4.593,0,0,0,.837,1.55A4.015,4.015,0,0,0,28.019-2.4a4.447,4.447,0,0,0,1.933.4,4.447,4.447,0,0,0,1.933-.4,4.015,4.015,0,0,0,1.388-1.07,4.593,4.593,0,0,0,.837-1.55,5.969,5.969,0,0,0,.279-1.823,5.969,5.969,0,0,0-.279-1.823,4.593,4.593,0,0,0-.837-1.55,4.084,4.084,0,0,0-1.388-1.077,4.386,4.386,0,0,0-1.933-.4,4.386,4.386,0,0,0-1.933.4,4.084,4.084,0,0,0-1.388,1.077,4.593,4.593,0,0,0-.837,1.55A5.969,5.969,0,0,0,25.515-6.844Zm23.351-4.631v9.263H50.1V-6.17h3.01a1.636,1.636,0,0,1,.726.136,1.216,1.216,0,0,1,.441.363,1.506,1.506,0,0,1,.246.532q.078.3.13.642a4.521,4.521,0,0,1,.078.688q.013.35.026.655a4,4,0,0,0,.058.551.774.774,0,0,0,.175.389h1.375a1.583,1.583,0,0,1-.292-.538,4.221,4.221,0,0,1-.149-.642,5.971,5.971,0,0,1-.065-.688q-.013-.35-.039-.688a5.964,5.964,0,0,0-.11-.649,1.968,1.968,0,0,0-.221-.564,1.422,1.422,0,0,0-.4-.435,1.65,1.65,0,0,0-.655-.259V-6.7a1.97,1.97,0,0,0,1.226-.869A2.811,2.811,0,0,0,56.04-9.05a2.233,2.233,0,0,0-.746-1.777,3.05,3.05,0,0,0-2.069-.649Zm3.8,4.268H50.1v-3.23H53.16A1.6,1.6,0,0,1,54.419-10a1.662,1.662,0,0,1,.389,1.142,1.7,1.7,0,0,1-.175.824,1.385,1.385,0,0,1-.467.506,1.783,1.783,0,0,1-.681.253A4.968,4.968,0,0,1,52.667-7.207Zm18.058-4.268v9.263h6.136V-3.251h-4.9v-8.225ZM92.144-3.251v-7.187h2.076a3.8,3.8,0,0,1,1.44.24,2.336,2.336,0,0,1,.954.7,2.848,2.848,0,0,1,.532,1.116A6.2,6.2,0,0,1,97.307-6.9a5.288,5.288,0,0,1-.175,1.459,3.554,3.554,0,0,1-.448,1.005,2.342,2.342,0,0,1-.616.636,3.024,3.024,0,0,1-.694.357,2.911,2.911,0,0,1-.662.156,5.169,5.169,0,0,1-.519.032Zm-1.232-8.225v9.263H94.09a5.56,5.56,0,0,0,2-.324,3.486,3.486,0,0,0,1.388-.941A3.868,3.868,0,0,0,98.28-5a7.5,7.5,0,0,0,.259-2.069,4.363,4.363,0,0,0-1.155-3.321,4.618,4.618,0,0,0-3.3-1.09Z" transform="translate(1766.808 2688.156)" fill="#c7990e"/>
    </g>
  </g>
</svg>
