<svg xmlns="http://www.w3.org/2000/svg" width="18.212" height="18.212" viewBox="0 0 18.212 18.212">
    <defs>
        <style>.a{fill:#adadad;}</style>
    </defs>
    <g transform="translate(-758.79 -384)">
        <path class="a" d="M3911.895,5764.212a9.106,9.106,0,1,1,9.106-9.107A9.116,9.116,0,0,1,3911.895,5764.212Zm-.02-11.118a1.581,1.581,0,0,0-1.58,1.58v4.741a1.58,1.58,0,1,0,3.159,0v-4.741A1.581,1.581,0,0,0,3911.875,5753.095Zm0-4.208a1.58,1.58,0,1,0,1.58,1.58A1.581,1.581,0,0,0,3911.875,5748.887Z" transform="translate(-3144 -5362)"/>
    </g>
</svg>