<svg xmlns="http://www.w3.org/2000/svg" xmlns:xlink="http://www.w3.org/1999/xlink" width="345.124" height="107.613" viewBox="0 0 345.124 107.613">
  <defs>
    <linearGradient id="linear-gradient" x1="0.5" x2="0.5" y2="1.2" gradientUnits="objectBoundingBox">
      <stop offset="0.091" stop-color="#ffc117"></stop> <!--mitad color logo izquierdo-->
      <stop offset="0.8" stop-color=""></stop><!--mitad color logo derecho-->
    </linearGradient>
    <linearGradient id="linear-gradient-4" x1="0.5" x2="0.5" y2="1" gradientUnits="objectBoundingBox">
      <stop offset="0" stop-color="#fd7e14"></stop> <!--mitad color circle superior-->
      <stop offset="0.619" stop-color="#db1529"></stop><!--mitad color circle medio-->
      <stop offset="1" stop-color="#630f17"></stop><!--mitad color circle inferior-->
    </linearGradient>
  </defs>
  <g id="Grupo_19952" data-name="Grupo 19952" transform="translate(-3480 -5622.082)">
    <g id="Grupo_19951" data-name="Grupo 19951" transform="translate(3219.553 5328.622)">
      <g id="Grupo_19930" data-name="Grupo 19930" transform="translate(260.447 293.46)">
        <g id="Elipse_14389" data-name="Elipse 14389" transform="translate(3.491 5.523)" fill="none" stroke="#20aee1" stroke-width="5">
          <!-- <ellipse cx="52.023" cy="51.045" rx="52.023" ry="51.045" stroke="none"/> -->
          <!-- <ellipse cx="52.023" cy="51.045" rx="49.523" ry="48.545" fill="none"/> -->
        </g>
        <!-- logo -->
        <path id="Subtração_2" data-name="Subtração 2" d="M13.084,76.446h0c-3.737,0-6.766-.9-9-2.686C1.6,71.781.232,68.847.027,65.04c-.28-5.207,1.638-11.746,5.547-18.911A96.459,96.459,0,0,1,22.617,24.176a105.336,105.336,0,0,1,23.7-17.719C54.239,2.233,61.539,0,67.43,0a14.1,14.1,0,0,1,9,2.686c2.485,1.979,3.849,4.913,4.054,8.721.28,5.207-1.638,11.746-5.547,18.911A96.455,96.455,0,0,1,57.894,52.271a105.329,105.329,0,0,1-23.7,17.719C26.274,74.214,18.974,76.446,13.084,76.446ZM69,3.568h0c-5.2,0-11.788,2.1-19.045,6.063A101.26,101.26,0,0,0,28.092,26.17,93.085,93.085,0,0,0,12.138,46.491c-3.687,6.591-5.5,12.515-5.256,17.13a9.3,9.3,0,0,0,3.3,7.141,11.538,11.538,0,0,0,7.357,2.185c5.2,0,11.787-2.1,19.044-6.063A101.27,101.27,0,0,0,58.451,50.347,93.084,93.084,0,0,0,74.4,30.025c3.687-6.591,5.5-12.515,5.256-17.13a9.3,9.3,0,0,0-3.3-7.142A11.526,11.526,0,0,0,69,3.569Z" transform="translate(21.875 93.272) rotate(-90)" fill="url(#linear-gradient)"/>
        <path id="Subtração_3" data-name="Subtração 3" d="M63.6,81.713h0c-5.51,0-12.367-2.4-19.828-6.947A102.316,102.316,0,0,1,21.41,55.721,110.7,110.7,0,0,1,9.439,39.744,75.358,75.358,0,0,1,2.128,24.466,34.475,34.475,0,0,1,.046,11.588c.247-3.816,1.5-6.769,3.713-8.776A11.944,11.944,0,0,1,12.056,0c5.511,0,12.369,2.4,19.831,6.948a102.312,102.312,0,0,1,22.36,19.044A110.716,110.716,0,0,1,66.217,41.969a75.356,75.356,0,0,1,7.311,15.278A34.471,34.471,0,0,1,75.61,70.125c-.248,3.816-1.5,6.769-3.714,8.776A11.944,11.944,0,0,1,63.6,81.713ZM16.286,3.739h0A9.777,9.777,0,0,0,9.5,6.03c-1.909,1.728-2.936,4.324-3.054,7.717A31.785,31.785,0,0,0,8.627,25.273c3.215,8.99,9.57,19.06,17.894,28.355a98.5,98.5,0,0,0,20.62,17.766,52.688,52.688,0,0,0,9.632,4.834,24.474,24.474,0,0,0,8.256,1.687,9.778,9.778,0,0,0,6.79-2.289c1.909-1.728,2.936-4.324,3.054-7.717a31.786,31.786,0,0,0-2.184-11.526c-3.215-8.99-9.57-19.06-17.894-28.354A98.5,98.5,0,0,0,34.174,10.26a52.675,52.675,0,0,0-9.632-4.834,24.468,24.468,0,0,0-8.256-1.686Z" transform="translate(0 65.52) rotate(-60)" fill="url(#linear-gradient)"/>
        <path id="Subtração_4" data-name="Subtração 4" d="M62.672,81.69c-5.431,0-12.188-2.4-19.541-6.945A101.215,101.215,0,0,1,21.1,55.7,110.562,110.562,0,0,1,9.3,39.733,75.825,75.825,0,0,1,2.1,24.459,34.921,34.921,0,0,1,.045,11.584C.289,7.769,1.52,4.817,3.7,2.811A11.666,11.666,0,0,1,11.88,0c5.431,0,12.188,2.4,19.541,6.945A101.213,101.213,0,0,1,53.455,25.984a110.574,110.574,0,0,1,11.8,15.973,75.829,75.829,0,0,1,7.2,15.274,34.922,34.922,0,0,1,2.052,12.875c-.244,3.815-1.475,6.767-3.659,8.773A11.667,11.667,0,0,1,62.672,81.69ZM15.863,3.872a9.462,9.462,0,0,0-6.63,2.269C7.369,7.853,6.365,10.426,6.25,13.789A31.907,31.907,0,0,0,8.383,25.211c3.141,8.909,9.348,18.889,17.479,28.1A96.621,96.621,0,0,0,46.007,70.919a51.173,51.173,0,0,0,9.409,4.79,23.607,23.607,0,0,0,8.066,1.671,9.468,9.468,0,0,0,6.63-2.269c1.864-1.713,2.868-4.286,2.984-7.648A31.908,31.908,0,0,0,70.962,56.04c-3.141-8.909-9.348-18.889-17.479-28.1A96.631,96.631,0,0,0,33.338,10.333a51.171,51.171,0,0,0-9.409-4.79A23.6,23.6,0,0,0,15.863,3.872Z" transform="translate(25.452 103.251) rotate(-105)" fill="url(#linear-gradient)"/>
        <!-- <circle id="Elipse_14390" data-name="Elipse 14390" cx="4.694" cy="4.694" r="4.694" transform="translate(22.658 34.859)" fill="url(#linear-gradient-4)"/>
        <circle id="Elipse_14391" data-name="Elipse 14391" cx="3.325" cy="3.325" r="3.325" transform="translate(42.997 29.775)" fill="url(#linear-gradient-4)"/>
        <circle id="Elipse_14392" data-name="Elipse 14392" cx="4.498" cy="4.498" r="4.498" transform="translate(77.418 41.509)" fill="url(#linear-gradient-4)"/>
        <circle id="Elipse_14393" data-name="Elipse 14393" cx="10.365" cy="10.365" r="10.365" transform="translate(62.946 55.199)" fill="url(#linear-gradient-4)"/> -->
      </g>
    </g>
    <!-- nombre -->
    <path id="Caminho_78332" data-name="Caminho 78332" d="M2.4,0h21.07c6.811,0,10.437-4.312,10.437-9.261V-25.088c0-4.9-3.626-9.212-10.437-9.212H2.4ZM23.765-11.123c0,2.009-.98,2.989-3.087,2.989H12.593V-26.166h8.085c2.107,0,3.087.98,3.087,2.989ZM48.51-34.3H38.367V0H48.51ZM67.865-13.083l6.713.49L74.529-8.33l-8.477.049c-2.107,0-2.891-1.176-2.891-2.793V-23.226c0-1.666.784-2.793,2.891-2.793H81.879l.049-8.134s-10.486-.441-18.669-.441c-6.811,0-10.241,4.41-10.241,9.31V-9.016c0,4.9,3.43,9.31,10.241,9.31,7.938,0,18.669-.735,18.669-.735A1.671,1.671,0,0,0,83.5-2.156l.49-18.228H67.865Zm34.447,0,6.713.49-.049,4.263-8.477.049c-2.107,0-2.891-1.176-2.891-2.793V-23.226c0-1.666.784-2.793,2.891-2.793h15.827l.049-8.134s-10.486-.441-18.669-.441c-6.811,0-10.241,4.41-10.241,9.31V-9.016c0,4.9,3.43,9.31,10.241,9.31,7.938,0,18.669-.735,18.669-.735a1.671,1.671,0,0,0,1.568-1.715l.49-18.228H102.312ZM132.545-34.3H122.4V0h10.143Zm34.692,0h-31.36v8.33h10.584V0h10.192V-25.97h10.584ZM189.875,0H200.8s-9.506-30.331-10.29-32.781c-.49-1.47-.637-1.519-2.646-1.519H176.449c-2.009,0-2.156.049-2.6,1.519C173.068-30.331,163.513,0,163.513,0h10.976l1.96-7.154h11.466Zm-8.281-26.607h1.176l3.038,11.123h-7.252ZM203.1,0h26.019V-8.379H213.3V-34.3H203.1Z" transform="translate(3596 5697.071)" fill="#fff"/>
    <path id="Caminho_78333" data-name="Caminho 78333" d="M11.568,0l3.056-11.424H13.1l-2.32,9.5h-.032l-2.528-9.5H6.576l-2.56,9.5H3.984l-2.24-9.5H.192L3.12,0H4.7l2.64-9.6h.032L9.984,0ZM32.944-5.712a6.586,6.586,0,0,1,.224-1.7,4.628,4.628,0,0,1,.7-1.512,3.6,3.6,0,0,1,1.232-1.08,3.706,3.706,0,0,1,1.792-.408,3.706,3.706,0,0,1,1.792.408,3.6,3.6,0,0,1,1.232,1.08,4.628,4.628,0,0,1,.7,1.512,6.586,6.586,0,0,1,.224,1.7,6.586,6.586,0,0,1-.224,1.7,4.628,4.628,0,0,1-.7,1.512,3.6,3.6,0,0,1-1.232,1.08,3.706,3.706,0,0,1-1.792.408A3.706,3.706,0,0,1,35.1-1.416,3.6,3.6,0,0,1,33.872-2.5a4.628,4.628,0,0,1-.7-1.512A6.586,6.586,0,0,1,32.944-5.712Zm-1.52,0a7.362,7.362,0,0,0,.344,2.248A5.665,5.665,0,0,0,32.8-1.552a4.952,4.952,0,0,0,1.712,1.32A5.484,5.484,0,0,0,36.9.256,5.484,5.484,0,0,0,39.28-.232a4.952,4.952,0,0,0,1.712-1.32,5.665,5.665,0,0,0,1.032-1.912,7.362,7.362,0,0,0,.344-2.248,7.362,7.362,0,0,0-.344-2.248,5.665,5.665,0,0,0-1.032-1.912A5.037,5.037,0,0,0,39.28-11.2a5.409,5.409,0,0,0-2.384-.5,5.409,5.409,0,0,0-2.384.5A5.037,5.037,0,0,0,32.8-9.872,5.665,5.665,0,0,0,31.768-7.96,7.362,7.362,0,0,0,31.424-5.712Zm28.8-5.712V0h1.52V-4.88h3.712a2.018,2.018,0,0,1,.9.168,1.5,1.5,0,0,1,.544.448,1.857,1.857,0,0,1,.3.656q.1.376.16.792a5.576,5.576,0,0,1,.1.848q.016.432.032.808a4.931,4.931,0,0,0,.072.68.954.954,0,0,0,.216.48h1.7a1.953,1.953,0,0,1-.36-.664,5.205,5.205,0,0,1-.184-.792,7.364,7.364,0,0,1-.08-.848q-.016-.432-.048-.848a7.356,7.356,0,0,0-.136-.8,2.428,2.428,0,0,0-.272-.7,1.754,1.754,0,0,0-.5-.536,2.035,2.035,0,0,0-.808-.32v-.032A2.43,2.43,0,0,0,68.6-6.608a3.467,3.467,0,0,0,.472-1.824,2.753,2.753,0,0,0-.92-2.192,3.762,3.762,0,0,0-2.552-.8ZM64.912-6.16H61.744v-3.984H65.52a1.972,1.972,0,0,1,1.552.544,2.049,2.049,0,0,1,.48,1.408,2.1,2.1,0,0,1-.216,1.016,1.709,1.709,0,0,1-.576.624,2.2,2.2,0,0,1-.84.312A6.127,6.127,0,0,1,64.912-6.16Zm22.272-5.264V0h7.568V-1.28H88.7V-11.424ZM113.6-1.28v-8.864h2.56a4.683,4.683,0,0,1,1.776.3,2.882,2.882,0,0,1,1.176.864,3.512,3.512,0,0,1,.656,1.376,7.647,7.647,0,0,1,.2,1.832,6.522,6.522,0,0,1-.216,1.8,4.384,4.384,0,0,1-.552,1.24,2.888,2.888,0,0,1-.76.784,3.729,3.729,0,0,1-.856.44,3.59,3.59,0,0,1-.816.192,6.375,6.375,0,0,1-.64.04Zm-1.52-10.144V0H116a6.857,6.857,0,0,0,2.464-.4,4.3,4.3,0,0,0,1.712-1.16,4.77,4.77,0,0,0,.992-1.872,9.247,9.247,0,0,0,.32-2.552,5.381,5.381,0,0,0-1.424-4.1A5.7,5.7,0,0,0,116-11.424Z" transform="translate(3650 5716.272)" fill="#c7990e"/>
  </g>
</svg>
